<?xml version="1.0" encoding="UTF-8" standalone="no"?>
<svg
   xmlns:dc="http://purl.org/dc/elements/1.1/"
   xmlns:cc="http://creativecommons.org/ns#"
   xmlns:rdf="http://www.w3.org/1999/02/22-rdf-syntax-ns#"
   xmlns:svg="http://www.w3.org/2000/svg"
   xmlns="http://www.w3.org/2000/svg"
   xmlns:sodipodi="http://sodipodi.sourceforge.net/DTD/sodipodi-0.dtd"
   xmlns:inkscape="http://www.inkscape.org/namespaces/inkscape"
   inkscape:version="1.0 (4035a4fb49, 2020-05-01)"
   sodipodi:docname="bano.svg"
   id="svg95"
   version="1.1"
   width="250"
   viewBox="0 0 31.25 31.25"
   height="250">
  <metadata
     id="metadata101">
    <rdf:RDF>
      <cc:Work
         rdf:about="">
        <dc:format>image/svg+xml</dc:format>
        <dc:type
           rdf:resource="http://purl.org/dc/dcmitype/StillImage" />
        <dc:title></dc:title>
      </cc:Work>
    </rdf:RDF>
  </metadata>
  <defs
     id="defs99" />
  <sodipodi:namedview
     inkscape:current-layer="svg95"
     inkscape:window-maximized="1"
     inkscape:window-y="0"
     inkscape:window-x="1360"
     inkscape:cy="130.80952"
     inkscape:cx="30.500934"
     inkscape:zoom="1.3838301"
     showgrid="false"
     id="namedview97"
     inkscape:window-height="668"
     inkscape:window-width="1366"
     inkscape:pageshadow="2"
     inkscape:pageopacity="0"
     guidetolerance="10"
     gridtolerance="10"
     objecttolerance="10"
     borderopacity="1"
     bordercolor="#666666"
     pagecolor="#ffffff" />
  <circle
     r="15.625"
     style="stroke-width:0.125;fill:#81d4fa;fill-opacity:1"
     cy="15.676212"
     cx="15.689983"
     id="path103" />
  <g
     transform="matrix(0.38009435,0,0,0.38009435,1.7487863,3.6325648)"
     data-name="Fill Outline"
     id="Fill_Outline">
    <g
       id="Color">
      <g
         id="g66">
        <path
           id="path2"
           fill="#e9f1f2"
           d="m 11,35 v 4 l 0.337,0.3 A 29.19,29.19 0 0 1 21,61 H 53 V 47 a 6,6 0 0 1 6,-6 v -6 z" />
        <path
           id="path4"
           fill="#d0d8da"
           d="M 40.318,52 A 15.941,15.941 0 0 1 26,43.116 C 25.813,42.735 25.594,42.372 25.39,42 H 37 a 3,3 0 0 0 3,-3 H 23.522 A 29.289,29.289 0 0 0 20.075,35 H 11 v 4 l 0.337,0.3 A 29.19,29.19 0 0 1 21,61 h 32 v -9 z" />
        <path
           id="path6"
           fill="#e9f1f2"
           d="M 43,9 H 59 V 35 H 54 A 11,11 0 0 1 43,24 Z" />
        <g
           id="g12"
           fill="#d0d8da">
          <path
             id="path8"
             d="M 49,20.561 V 15.438 A 4.438,4.438 0 0 1 53.438,11 H 59 V 9 H 43 v 15 a 11,11 0 0 0 11,11 h 5 V 31.9 A 11.434,11.434 0 0 1 49,20.561 Z" />
          <circle
             id="circle10"
             r="2"
             cy="16"
             cx="52" />
        </g>
        <path
           id="path14"
           fill="#84d2f4"
           d="m 46,3 h 10 a 3,3 0 0 1 3,3 V 9 H 43 V 6 a 3,3 0 0 1 3,-3 z" />
        <path
           id="path16"
           fill="#84d2f4"
           d="m 15,31 h 24 a 4,4 0 0 1 4,4 H 11 a 4,4 0 0 1 4,-4 z" />
        <path
           id="path18"
           fill="#93999a"
           d="m 47,51 v 10 h -8 v -2 a 8,8 0 0 1 8,-8 z" />
        <g
           id="g24">
          <path
             id="path20"
             fill="#84d2f4"
             d="m 35,27 a 4.714,4.714 0 0 0 -4,-4 4.714,4.714 0 0 0 4,-4 4.714,4.714 0 0 0 4,4 4.714,4.714 0 0 0 -4,4 z" />
          <path
             id="path22"
             fill="#57b7eb"
             d="M 34.588,21.058 35,19 a 4.714,4.714 0 0 1 -4,4 4.714,4.714 0 0 1 4,4 4.714,4.714 0 0 1 4,-4 l -2.058,0.412 a 2,2 0 0 1 -2.354,-2.354 z" />
        </g>
        <g
           id="g30">
          <path
             id="path26"
             fill="#84d2f4"
             d="m 9,30 a 4.714,4.714 0 0 0 -4,-4 4.714,4.714 0 0 0 4,-4 4.714,4.714 0 0 0 4,4 4.714,4.714 0 0 0 -4,4 z" />
          <path
             id="path28"
             fill="#57b7eb"
             d="M 8.588,24.058 9,22 a 4.714,4.714 0 0 1 -4,4 4.714,4.714 0 0 1 4,4 4.714,4.714 0 0 1 4,-4 l -2.058,0.412 A 2,2 0 0 1 8.588,24.058 Z" />
        </g>
        <g
           id="g36">
          <path
             id="path32"
             fill="#84d2f4"
             d="m 28,53 a 4.714,4.714 0 0 0 -4,-4 4.714,4.714 0 0 0 4,-4 4.714,4.714 0 0 0 4,4 4.714,4.714 0 0 0 -4,4 z" />
          <path
             id="path34"
             fill="#57b7eb"
             d="M 27.588,47.058 28,45 a 4.714,4.714 0 0 1 -4,4 4.714,4.714 0 0 1 4,4 4.714,4.714 0 0 1 4,-4 l -2.058,0.412 a 2,2 0 0 1 -2.354,-2.354 z" />
        </g>
        <path
           id="path38"
           fill="#d0d8da"
           d="m 51,16 h 2 v 3 a 1,1 0 0 1 -1,1 1,1 0 0 1 -1,-1 z" />
        <circle
           id="circle40"
           r="2"
           fill="#84d2f4"
           cy="15"
           cx="53" />
        <path
           id="path42"
           fill="#57b7eb"
           d="M 54,16 A 1.992,1.992 0 0 1 52.18,13.18 2,2 0 1 0 54.82,15.82 1.99,1.99 0 0 1 54,16 Z" />
        <path
           id="path44"
           fill="#57b7eb"
           d="M 46.141,3 H 46 A 3,3 0 0 0 43,6 V 9 H 59 V 6 H 50 A 3.992,3.992 0 0 1 46.141,3 Z" />
        <path
           id="path46"
           fill="#d0d8da"
           d="m 46,39 a 3,3 0 0 0 3,3 h 6.686 A 5.967,5.967 0 0 1 59,41 v -2 z" />
        <path
           id="path48"
           fill="#57b7eb"
           d="M 19,33 A 2.99,2.99 0 0 1 16.184,31 H 15 a 4,4 0 0 0 -4,4 h 32 a 3.955,3.955 0 0 0 -0.555,-2 z" />
        <g
           id="g64">
          <circle
             id="circle50"
             r="10"
             fill="#e9f1f2"
             cy="14"
             cx="21" />
          <path
             id="path52"
             fill="#d0d8da"
             d="M 26,19 A 9.988,9.988 0 0 1 16.89,4.89 10,10 0 1 0 30.11,18.11 9.954,9.954 0 0 1 26,19 Z" />
          <path
             id="path54"
             fill="#84d2f4"
             d="M 27,12 H 23 V 8 h -4 v 4 h -4 v 4 h 4 v 4 h 4 v -4 h 4 z" />
          <path
             id="path56"
             fill="#57b7eb"
             d="M 21,11 V 8 h -2 v 4 h -4 v 4 h 4 v 4 h 4 v -4 h 4 v -2 h -3 a 3,3 0 0 1 -3,-3 z" />
          <g
             id="g62"
             fill="#4891d3">
            <path
               id="path58"
               d="M 23,18.541 A 10,10 0 0 1 19,16.136 V 20 h 4 z" />
            <path
               id="path60"
               d="M 16.459,12 H 15 v 4 h 3.864 a 10,10 0 0 1 -2.405,-4 z" />
          </g>
        </g>
      </g>
    </g>
    <g
       data-name="Outline copy"
       id="Outline_copy">
      <g
         id="g91"
         fill="#464a51">
        <path
           id="path69"
           d="m 59,12 a 1,1 0 0 0 -1,1 V 34 H 54 A 10.011,10.011 0 0 1 44,24 1,1 0 0 0 42,24 12,12 0 0 0 47.381,34 H 43.9 A 5.009,5.009 0 0 0 39,30 H 15 a 5.006,5.006 0 0 0 -5,5 1,1 0 0 0 1,1 h 48 a 1,1 0 0 0 1,-1 V 13 A 1,1 0 0 0 59,12 Z M 12.171,34 A 3.006,3.006 0 0 1 15,32 h 24 a 3.006,3.006 0 0 1 2.829,2 z" />
        <path
           id="path71"
           d="M 56,2 H 46 a 4,4 0 0 0 -4,4 v 14 a 1,1 0 0 0 2,0 V 10 H 59 A 1,1 0 0 0 60,9 V 6 A 4,4 0 0 0 56,2 Z m 2,6 H 44 V 6 a 2,2 0 0 1 2,-2 h 10 a 2,2 0 0 1 2,2 z" />
        <path
           id="path73"
           d="m 59,38 a 1,1 0 0 0 -1,1 v 1.071 A 7.011,7.011 0 0 0 52,47 V 60 H 40 v -1 a 7.011,7.011 0 0 1 6,-6.929 V 57 a 1,1 0 0 0 2,0 v -6 a 1,1 0 0 0 -1,-1 9.01,9.01 0 0 0 -9,9 v 1 H 21.983 A 30.244,30.244 0 0 0 13.5,40 H 40 a 1,1 0 0 0 0,-2 H 11 a 1,1 0 0 0 -0.67,1.743 l 0.338,0.3 A 28.227,28.227 0 0 1 20,61 a 1,1 0 0 0 1,1 h 32 a 1,1 0 0 0 1,-1 V 47 a 5.006,5.006 0 0 1 5,-5 1,1 0 0 0 1,-1 v -2 a 1,1 0 0 0 -1,-1 z" />
        <path
           id="path75"
           d="m 53,20 a 1,1 0 0 0 1,-1 v -1.184 a 3,3 0 1 0 -2,0 V 19 a 1,1 0 0 0 1,1 z m 0,-6 a 1,1 0 1 1 -1,1 1,1 0 0 1 1,-1 z" />
        <path
           id="path77"
           d="M 21,25 A 11,11 0 0 0 30.174,7.936 1.000406,1.000406 0 0 0 28.506,9.041 9.006,9.006 0 1 1 25.96,6.494 1,1 0 1 0 27.06,4.826 11,11 0 1 0 21,25 Z" />
        <path
           id="path79"
           d="M 24,11 V 8 A 1,1 0 0 0 23,7 h -4 a 1,1 0 0 0 -1,1 v 3 h -3 a 1,1 0 0 0 -1,1 v 4 a 1,1 0 0 0 1,1 h 3 v 3 a 1,1 0 0 0 1,1 h 4 a 1,1 0 0 0 1,-1 v -3 h 3 a 1,1 0 0 0 1,-1 v -4 a 1,1 0 0 0 -1,-1 z m 2,4 h -3 a 1,1 0 0 0 -1,1 v 3 h -2 v -3 a 1,1 0 0 0 -1,-1 h -3 v -2 h 3 a 1,1 0 0 0 1,-1 V 9 h 2 v 3 a 1,1 0 0 0 1,1 h 3 z" />
        <path
           id="path81"
           d="M 35.5,11.5 H 36 V 12 a 1,1 0 0 0 2,0 v -0.5 h 0.5 a 1,1 0 0 0 0,-2 H 38 V 9 a 1,1 0 0 0 -2,0 v 0.5 h -0.5 a 1,1 0 0 0 0,2 z" />
        <path
           id="path83"
           d="m 44,43 a 1,1 0 0 0 -1,1 v 0.5 h -0.5 a 1,1 0 0 0 0,2 H 43 V 47 a 1,1 0 0 0 2,0 v -0.5 h 0.5 a 1,1 0 0 0 0,-2 H 45 V 44 a 1,1 0 0 0 -1,-1 z" />
        <path
           id="path85"
           d="m 30,23 a 1,1 0 0 0 0.858,0.99 3.734,3.734 0 0 1 3.152,3.151 1,1 0 0 0 1.98,0 3.734,3.734 0 0 1 3.152,-3.151 1,1 0 0 0 0,-1.98 3.734,3.734 0 0 1 -3.152,-3.151 1,1 0 0 0 -1.98,0 A 3.734,3.734 0 0 1 30.858,22.01 1,1 0 0 0 30,23 Z m 5,-1.379 A 5.792,5.792 0 0 0 36.38,23 5.792,5.792 0 0 0 35,24.379 5.792,5.792 0 0 0 33.62,23 5.792,5.792 0 0 0 35,21.621 Z" />
        <path
           id="path87"
           d="m 28.99,44.859 a 1,1 0 0 0 -1.98,0 3.734,3.734 0 0 1 -3.152,3.151 1,1 0 0 0 0,1.98 3.734,3.734 0 0 1 3.152,3.151 1,1 0 0 0 1.98,0 3.734,3.734 0 0 1 3.152,-3.151 1,1 0 0 0 0,-1.98 3.734,3.734 0 0 1 -3.152,-3.151 z M 28,50.379 A 5.792,5.792 0 0 0 26.62,49 5.792,5.792 0 0 0 28,47.621 5.792,5.792 0 0 0 29.38,49 5.792,5.792 0 0 0 28,50.379 Z" />
        <path
           id="path89"
           d="m 13.142,26.99 a 1,1 0 0 0 0,-1.98 3.734,3.734 0 0 1 -3.152,-3.151 1,1 0 0 0 -1.98,0 3.734,3.734 0 0 1 -3.152,3.151 1,1 0 0 0 0,1.98 3.734,3.734 0 0 1 3.152,3.151 1,1 0 0 0 1.98,0 3.734,3.734 0 0 1 3.152,-3.151 z M 9,27.379 A 5.792,5.792 0 0 0 7.62,26 5.792,5.792 0 0 0 9,24.621 5.792,5.792 0 0 0 10.38,26 5.792,5.792 0 0 0 9,27.379 Z" />
      </g>
    </g>
  </g>
</svg>
