<?xml version="1.0" encoding="UTF-8" standalone="no"?>
<svg
   xmlns:dc="http://purl.org/dc/elements/1.1/"
   xmlns:cc="http://creativecommons.org/ns#"
   xmlns:rdf="http://www.w3.org/1999/02/22-rdf-syntax-ns#"
   xmlns:svg="http://www.w3.org/2000/svg"
   xmlns="http://www.w3.org/2000/svg"
   xmlns:sodipodi="http://sodipodi.sourceforge.net/DTD/sodipodi-0.dtd"
   xmlns:inkscape="http://www.inkscape.org/namespaces/inkscape"
   inkscape:version="1.0 (4035a4fb49, 2020-05-01)"
   height="250"
   width="250"
   sodipodi:docname="enfermera.svg"
   xml:space="preserve"
   viewBox="0 0 250 250"
   y="0px"
   x="0px"
   id="Layer_1"
   version="1.1"><metadata
   id="metadata61"><rdf:RDF><cc:Work
       rdf:about=""><dc:format>image/svg+xml</dc:format><dc:type
         rdf:resource="http://purl.org/dc/dcmitype/StillImage" /><dc:title></dc:title></cc:Work></rdf:RDF></metadata><defs
   id="defs59" /><sodipodi:namedview
   inkscape:current-layer="Layer_1"
   inkscape:window-maximized="0"
   inkscape:window-y="0"
   inkscape:window-x="0"
   inkscape:cy="129.12862"
   inkscape:cx="163.9241"
   inkscape:zoom="1.9570312"
   showgrid="false"
   id="namedview57"
   inkscape:window-height="678"
   inkscape:window-width="1366"
   inkscape:pageshadow="2"
   inkscape:pageopacity="0"
   guidetolerance="10"
   gridtolerance="10"
   objecttolerance="10"
   borderopacity="1"
   bordercolor="#666666"
   pagecolor="#ffffff" />
<circle
   id="circle2"
   r="124.12066"
   cy="124.97697"
   cx="125.14648"
   style="fill:#ff5b62;stroke-width:0.484847" />
<path
   id="path4"
   d="M 86.660338,161.18582 C 77.04923,136.93769 56.860715,114.99402 82.264726,70.792517 92.727223,52.588472 108.70969,40.583198 125.22066,44.647662 c 16.50852,-4.064464 32.49148,7.94081 42.954,26.144855 25.404,44.201013 5.21548,66.145173 -4.39562,90.393303 l -38.5579,0.0966 -38.55789,-0.0966 z"
   style="fill:#666666;stroke-width:0.484847" />
<path
   id="path6"
   d="m 60.277913,199.09158 c -1.090906,1.76 -3.656714,15.48114 -6.599245,27.37248 20.205484,14.25595 44.859434,22.6336 71.470232,22.6336 26.61079,0 51.26184,-8.37765 71.47021,-22.63602 -2.94251,-11.89136 -5.51123,-25.60957 -6.60164,-27.37006 -18.51534,-29.89611 -47.05386,-16.84454 -49.00053,-51.05576 0,0 -9.18154,6.8499 -16.19337,6.91535 -7.01185,0.0628 -15.55243,-6.48092 -15.55243,-6.48092 -1.94132,34.18213 -30.489073,20.74752 -48.991289,50.62372 z"
   style="fill:#fed298;stroke-width:0.484847" />
<path
   id="path8"
   d="m 141.51197,152.86683 c -0.22835,-1.50059 -0.39854,-3.10399 -0.49697,-4.83295 0,0 -9.18153,6.84991 -16.19338,6.91537 -7.01185,0.0632 -15.55241,-6.48095 -15.55241,-6.48095 -0.0989,1.75999 -0.27345,3.38568 -0.51054,4.90423 0.17891,0.14307 0.3583,0.28652 0.53963,0.42761 l -0.003,0.0247 c 0.53963,0.47029 8.74712,7.52675 15.52526,7.45743 6.77865,0.0717 14.98611,-6.98714 15.52527,-7.45743 l -0.003,-0.0247 c 0.39999,-0.30446 0.78544,-0.61817 1.16799,-0.93331 z"
   style="fill:#f0ba7d;stroke-width:0.484847" />
<path
   id="path10"
   d="m 109.2983,148.49061 c 0.53963,0.40727 8.74711,6.52118 15.52527,6.45864 6.77863,0.0606 14.98612,-6.05334 15.52526,-6.45864 10.24529,-5.97235 18.65204,-23.58293 16.75338,-42.66941 -1.55441,-15.633357 -18.46634,7.2892 -30.24521,-24.966662 -16.66998,34.922982 -32.504571,14.265139 -34.312085,27.499522 -1.988353,14.5803 6.198764,32.93028 16.753385,40.13655 z"
   style="fill:#fed298;stroke-width:0.484847" />
<path
   id="path12"
   d="m 95.846236,172.94285 c -10.088197,5.39003 -28.545324,5.55394 -35.568323,16.8426 -1.12194,1.80265 -3.795865,22.19723 -6.834396,36.51571 20.250577,14.35629 44.991803,22.7965 71.702953,22.7965 26.70922,0 51.44802,-8.43827 71.69616,-22.79261 -3.0904,-14.29376 -6.04411,-34.54482 -6.82759,-36.52012 -4.66232,-11.76139 -26.25008,-12.25203 -36.3499,-17.67553 -15.70272,56.97235 -39.10626,60.85549 -57.816477,0.83977 l -0.0046,-0.003 z"
   style="fill:#21d0c3;stroke-width:0.484847" />
<g
   transform="matrix(0.48484632,0,0,0.48484632,1.0258105,0.85634398)"
   id="g20">
	<path
   id="path14"
   d="m 209.443,343.254 c -1.353,36.558 4.859,88.347 45.882,101.586 -38.618,1.612 -63.679,-54.03 -92.223,-68.603 l 46.344,-32.978 z"
   style="fill:#ffffff" />
	<path
   id="path16"
   d="m 303.508,343.254 c 1.418,36.558 -5.108,88.347 -48.183,101.586 40.553,1.612 66.87,-54.03 96.842,-68.603 l -48.659,-32.978 z"
   style="fill:#ffffff" />
	<path
   id="path18"
   d="m 192.404,55.546 h 129.261 c 7.99,0 15.14,5.972 14.526,13.219 l -5.025,58.727 c -16.392,-16.106 -131.921,-17.468 -148.262,0 l -5.025,-58.727 c -0.62,-7.252 6.535,-13.219 14.525,-13.219 z"
   style="fill:#ffffff" />
</g>
<circle
   id="circle22"
   r="11.906856"
   cy="42.646225"
   cx="125.64973"
   style="fill:#21d0c3;stroke-width:0.484847" />
<path
   id="path24"
   d="m 123.38163,34.299103 h 4.53284 v 6.079974 h 6.07947 v 4.53283 h -6.07947 v 6.079972 h -4.53284 v -6.079487 h -6.07997 v -4.532827 h 6.07997 z"
   style="fill:#ffffff;stroke-width:0.484847" />
<g
   id="g26">
</g>
<g
   id="g28">
</g>
<g
   id="g30">
</g>
<g
   id="g32">
</g>
<g
   id="g34">
</g>
<g
   id="g36">
</g>
<g
   id="g38">
</g>
<g
   id="g40">
</g>
<g
   id="g42">
</g>
<g
   id="g44">
</g>
<g
   id="g46">
</g>
<g
   id="g48">
</g>
<g
   id="g50">
</g>
<g
   id="g52">
</g>
<g
   id="g54">
</g>
</svg>
